<svg width="82" height="82" viewBox="0 0 82 82" fill="none" xmlns="http://www.w3.org/2000/svg">
<rect width="82" height="82" rx="5.05913" fill="#FFAB2D"/>
<path d="M18.7246 29.09H15.1807V30.1018L18.7246 29.8489V29.09Z" fill="white"/>
<path d="M11.8901 32.1255L18.7246 30.3548V30.8607L12.3963 33.6432L11.8901 32.1255Z" fill="white"/>
<path d="M18.9777 32.1255L18.7246 31.6195L10.1182 36.9316L11.3838 38.4494L18.9777 32.1255Z" fill="white"/>
<path d="M19.4839 33.6432L19.2308 32.8843L10.3713 42.7496L12.3963 44.2674L19.4839 33.6432Z" fill="white"/>
<path d="M20.4965 35.6668L19.7371 34.655L13.1557 48.8206L16.1933 50.0854L20.4965 35.6668Z" fill="white"/>
<path d="M22.2684 38.1964L21.0027 36.9316L18.4714 54.3856L22.2684 54.6386V38.1964Z" fill="white"/>
<path d="M25.559 40.473L23.7871 39.4612L26.8247 61.4684L31.381 60.4566L25.559 40.473Z" fill="white"/>
<path d="M30.3685 41.9908L28.0903 41.7378L37.4561 61.9743L41.7593 59.4447L30.3685 41.9908Z" fill="white"/>
<path d="M36.4436 41.4848L33.406 41.9908L48.3407 58.6859L52.1376 54.6386L36.4436 41.4848Z" fill="white"/>
<path d="M43.0249 38.4494L39.9874 40.2201L59.4783 52.362L61.5034 46.291L43.0249 38.4494Z" fill="white"/>
<path d="M48.5938 32.3784L46.3156 35.6668L68.0847 41.4848V34.4021L48.5938 32.3784Z" fill="white"/>
<path d="M51.6313 23.7779L50.8719 28.3311L71.8817 27.5722V20.2365L51.6313 23.7779Z" fill="white"/>
</svg>
